<?xml version="1.0" standalone="no"?>
<!DOCTYPE svg PUBLIC "-//W3C//DTD SVG 20010904//EN"
 "http://www.w3.org/TR/2001/REC-SVG-20010904/DTD/svg10.dtd">
<svg version="1.0" xmlns="http://www.w3.org/2000/svg"
 width="400.000000pt" height="400.000000pt" viewBox="0 0 400.000000 400.000000"
 preserveAspectRatio="xMidYMid meet">
<metadata>
Created by potrace 1.13, written by Peter Selinger 2001-2015
</metadata>
<g transform="translate(0.000000,400.000000) scale(0.100000,-0.100000)"
fill="#000000" stroke="none">
<path d="M1930 3783 c-326 -32 -577 -122 -813 -290 -107 -77 -277 -247 -354
-356 -371 -526 -379 -1237 -20 -1760 231 -336 571 -559 987 -648 152 -33 458
-33 607 -1 317 68 563 202 789 427 299 299 454 669 454 1089 0 702 -473 1312
-1157 1491 -156 41 -365 61 -493 48z m-590 -435 c-131 -182 -196 -430 -170
-648 35 -287 137 -496 452 -928 247 -338 327 -404 449 -372 88 23 264 229 516
602 208 309 280 522 270 803 -7 218 -57 365 -182 538 -32 43 -55 80 -53 82 8
8 112 -53 191 -111 103 -76 250 -230 321 -336 230 -346 291 -781 164 -1177
-56 -178 -156 -351 -281 -487 -68 -75 -75 -73 -76 23 -2 139 -53 280 -118 331
-35 26 -224 102 -255 102 -10 0 -54 -48 -109 -122 -51 -68 -138 -168 -194
-224 -84 -85 -109 -104 -154 -119 -66 -22 -142 -15 -209 19 -64 32 -196 172
-316 334 -55 72 -101 132 -104 132 -19 0 -156 -47 -197 -67 -121 -61 -152
-124 -171 -350 -4 -46 -10 -83 -15 -83 -13 0 -121 127 -172 203 -56 84 -136
244 -167 337 -69 205 -88 446 -51 656 36 210 115 402 227 555 58 79 191 216
263 272 65 50 171 116 188 117 7 0 -15 -37 -47 -82z m501 -26 c35 -26 87 -64
115 -85 l52 -37 117 86 c64 47 120 83 122 80 3 -3 -13 -66 -36 -140 -22 -75
-41 -138 -41 -141 0 -3 52 -44 115 -91 63 -47 115 -89 115 -94 0 -5 -66 -11
-147 -12 l-148 -3 -44 -137 c-25 -76 -48 -138 -51 -138 -3 0 -26 64 -51 143
l-45 142 -154 5 -155 5 115 84 c63 46 118 87 122 90 4 4 -12 70 -37 146 -25
77 -45 141 -45 143 0 10 26 -5 81 -46z m-380 -602 c73 -22 168 -76 218 -123
18 -18 55 -63 82 -101 112 -157 136 -334 56 -402 -28 -23 -38 -26 -92 -22 -79
5 -125 29 -206 105 -111 105 -169 242 -169 401 0 85 17 162 35 162 7 0 41 -9
76 -20z m1207 -50 c63 -263 -118 -584 -341 -607 -115 -12 -163 43 -155 176 13
208 172 402 388 472 82 27 92 24 108 -41z"/>
</g>
</svg>
