<?xml version="1.0" encoding="UTF-8" standalone="no"?>
<svg
   xmlns:dc="http://purl.org/dc/elements/1.1/"
   xmlns:cc="http://creativecommons.org/ns#"
   xmlns:rdf="http://www.w3.org/1999/02/22-rdf-syntax-ns#"
   xmlns:svg="http://www.w3.org/2000/svg"
   xmlns="http://www.w3.org/2000/svg"
   xmlns:sodipodi="http://sodipodi.sourceforge.net/DTD/sodipodi-0.dtd"
   xmlns:inkscape="http://www.inkscape.org/namespaces/inkscape"
   version="1.0"
   width="400.000000pt"
   height="400.000000pt"
   viewBox="0 0 400.000000 400.000000"
   preserveAspectRatio="xMidYMid meet"
   id="svg2"
   inkscape:version="0.91 r13725"
   sodipodi:docname="logowhite.svg">
  <defs
     id="defs12" />
  <sodipodi:namedview
     pagecolor="#ffffff"
     bordercolor="#666666"
     borderopacity="1"
     objecttolerance="10"
     gridtolerance="10"
     guidetolerance="10"
     inkscape:pageopacity="0"
     inkscape:pageshadow="2"
     inkscape:window-width="1920"
     inkscape:window-height="1017"
     id="namedview10"
     showgrid="false"
     inkscape:zoom="0.472"
     inkscape:cx="250"
     inkscape:cy="250"
     inkscape:window-x="-8"
     inkscape:window-y="-8"
     inkscape:window-maximized="1"
     inkscape:current-layer="g6" />
  <metadata
     id="metadata4">
Created by potrace 1.13, written by Peter Selinger 2001-2015
<rdf:RDF>
  <cc:Work
     rdf:about="">
    <dc:format>image/svg+xml</dc:format>
    <dc:type
       rdf:resource="http://purl.org/dc/dcmitype/StillImage" />
    <dc:title />
  </cc:Work>
</rdf:RDF>
</metadata>
  <g
     transform="matrix(0.12787644,0,0,-0.10989631,-59.119689,437.4767)"
     id="g6"
     style="fill:#000000;stroke:none">
    <path
       d="m 1948.6046,3782.7833 c -330.1804,-33.761 -584.399,-128.7138 -823.4253,-305.9591 C 1016.8072,3395.5868 844.62728,3216.2315 766.63989,3101.233 390.88246,2546.2865 382.77988,1796.1593 746.38342,1244.3779 980.34559,889.88732 1324.7055,654.61533 1746.04,560.71754 c 153.9491,-34.81604 463.873,-34.81604 614.7837,-1.05503 321.0649,71.74213 570.2195,213.11633 799.1175,450.49839 302.8342,315.4544 459.8218,705.816 459.8218,1148.9291 0,740.632 -479.0654,1384.2012 -1171.8365,1573.0518 -158.0005,43.2563 -369.6805,64.3569 -499.3219,50.6415 z m -597.5657,-458.9386 c -132.6798,-192.0158 -198.5134,-453.6635 -172.18,-683.6604 35.4489,-302.794 138.7568,-523.2955 457.7962,-979.0691 250.1673,-356.6006 331.1932,-426.2326 454.7576,-392.4716 89.1284,24.2657 267.3853,241.6022 522.6168,635.1289 210.6672,326.0046 283.5905,550.7263 273.4623,847.1901 -7.0898,229.9969 -57.731,385.0865 -184.3339,567.6069 -32.4103,45.3663 -55.7053,84.4025 -53.6796,86.5126 8.1026,8.4402 113.4362,-55.9167 193.4492,-117.1085 104.3208,-80.1824 253.2058,-242.6572 325.1163,-354.4905 232.9493,-365.0409 294.7316,-823.9795 166.103,-1241.772 -56.7181,-187.7955 -158.0004,-370.316 -284.6033,-513.8002 -68.872,-79.1274 -75.9618,-77.0173 -76.9746,24.2657 -2.0256,146.6494 -53.6796,295.4088 -119.5131,349.2154 -35.4488,27.4308 -226.8724,107.6132 -258.27,107.6132 -10.1282,0 -54.6924,-50.6415 -110.3977,-128.7138 -51.654,-71.7422 -139.7696,-177.2453 -196.4877,-236.3271 -85.0772,-89.6776 -110.3977,-109.7232 -155.9748,-125.5487 -66.8463,-23.2107 -143.8209,-15.8255 -211.68,20.0456 -64.8207,33.761 -198.5134,181.4654 -320.0522,352.3805 -55.7053,75.9622 -102.2951,139.2641 -105.3336,139.2641 -19.2436,0 -158.0004,-49.5865 -199.5262,-70.6871 -122.5516,-64.3569 -153.9491,-130.8239 -173.1928,-369.261 -4.0512,-48.5314 -10.1282,-87.5676 -15.1923,-87.5676 -13.1667,0 -122.55162,133.989 -174.2056,214.1714 -56.7181,88.6226 -137.74396,257.4276 -169.14148,355.5456 -69.88481,216.2814 -89.12845,470.5439 -51.65399,692.1005 36.46164,221.5566 116.47467,424.1226 229.91088,585.5424 58.74379,83.3475 193.44919,227.8868 266.37249,286.9686 65.8335,52.7515 173.1928,122.3836 190.4108,123.4386 7.0898,0 -15.1924,-39.0361 -47.6027,-86.5125 z m 507.4244,-27.4309 c 35.4489,-27.4308 88.1157,-67.522 116.4747,-89.6776 l 52.6668,-39.0362 118.5003,90.7327 c 64.8207,49.5865 121.5388,87.5676 123.5645,84.4025 3.0384,-3.1651 -13.1667,-69.6321 -36.4617,-147.7044 -22.2821,-79.1273 -41.5257,-145.5943 -41.5257,-148.7594 0,-3.1651 52.6668,-46.4214 116.4747,-96.0078 63.8078,-49.5865 116.4746,-93.8978 116.4746,-99.173 0,-5.2752 -66.8463,-11.6053 -148.885,-12.6604 l -149.8978,-3.1651 -44.5642,-144.5393 c -25.3206,-80.1823 -48.6156,-145.5943 -51.654,-145.5943 -3.0385,0 -26.3334,67.522 -51.654,150.8695 l -45.5771,149.8144 -155.9747,5.2752 -156.9876,5.2752 116.4746,88.6226 c 63.8079,48.5314 119.5132,91.7877 123.5645,94.9528 4.0513,4.2201 -12.1539,73.8522 -37.4745,154.0346 -25.3206,81.2374 -45.577,148.7594 -45.577,150.8695 0,10.5503 26.3334,-5.2752 82.0386,-48.5315 z M 1473.5905,2661.285 c 73.9361,-23.2107 170.1543,-80.1824 220.7955,-129.7689 18.2308,-18.9906 55.7053,-66.467 83.0515,-106.5582 113.4362,-165.6399 137.7439,-352.3804 56.7181,-424.1226 -28.3591,-24.2657 -38.4873,-27.4308 -93.1798,-23.2107 -80.013,5.2752 -126.6029,30.596 -208.6415,110.7783 -112.4234,110.7783 -171.1672,255.3176 -171.1672,423.0676 0,89.6777 17.218,170.9151 35.4488,170.9151 7.0898,0 41.5258,-9.4953 76.9746,-21.1006 z m 1222.4777,-52.7516 c 63.8078,-277.4733 -119.5132,-616.1383 -345.3728,-640.404 -116.4746,-12.6604 -165.0902,45.3663 -156.9876,185.6855 13.1667,219.4465 174.2056,424.1226 392.9755,497.9748 83.0515,28.4858 93.1797,25.3207 109.3849,-43.2563 z"
       id="path8"
       style="fill:#ffffff"
       inkscape:connector-curvature="0" />
  </g>
</svg>
